<mxfile host="app.diagrams.net" modified="2024-04-11T09:27:10.508Z" agent="Mozilla/5.0 (Windows NT 10.0; Win64; x64) AppleWebKit/537.36 (KHTML, like Gecko) Chrome/123.0.0.0 Safari/537.36" etag="KRKttPwioCsSKMdW77yf" version="24.2.2" type="github">
  <diagram name="Trang-1" id="mjab6ADfAxwIbhP81gIm">
    <mxGraphModel dx="281" dy="603" grid="0" gridSize="10" guides="1" tooltips="1" connect="1" arrows="1" fold="1" page="1" pageScale="1" pageWidth="1654" pageHeight="2336" math="0" shadow="0">
      <root>
        <object label="" id="0">
          <mxCell />
        </object>
        <mxCell id="1" parent="0" />
        <object label="Actor" id="of0kRLde1mflrW6ySoam-1">
          <mxCell style="shape=umlActor;verticalLabelPosition=bottom;verticalAlign=top;html=1;outlineConnect=0;overflow=hidden;noLabel=1;" vertex="1" parent="1">
            <mxGeometry x="41" y="153" width="26" height="42" as="geometry" />
          </mxCell>
        </object>
      </root>
    </mxGraphModel>
  </diagram>
</mxfile>
